<svg xmlns="http://www.w3.org/2000/svg" viewBox="0 0 518 230" width="177.79999999999998mm" height="78.94594594594595mm"><rect stroke="rgb(0,224,0)" stroke-width="0.03125" x="0" y="0" width="518" height="230" rx="11.653543307086615" ry="11.653543307086615" fill="none"/><path stroke="rgb(0,0,255)" stroke-width="0.03125" d="M 123.41666666666667 33.08333333333333 C 123.66666666666667 33.166666666666664 123.83333333333333 33.333333333333336 124.0 33.5 C 124.16666666666667 33.666666666666664 124.33333333333333 33.833333333333336 124.5 34.0 C 124.66666666666667 34.166666666666664 124.83333333333333 34.333333333333336 125.0 34.5 C 125.16666666666667 34.666666666666664 125.33333333333333 34.833333333333336 125.5 35.0 C 125.66666666666667 35.166666666666664 125.83333333333333 35.333333333333336 126.0 35.5 C 126.16666666666667 35.666666666666664 126.33333333333333 35.833333333333336 126.5 36.0 C 126.66666666666667 36.166666666666664 126.83333333333333 36.333333333333336 127.0 36.5 C 127.16666666666667 36.666666666666664 127.33333333333333 36.833333333333336 127.5 37.0 C 127.66666666666667 37.166666666666664 127.83333333333333 37.333333333333336 128.0 37.5 C 128.16666666666666 37.666666666666664 128.33333333333334 37.833333333333336 128.5 38.0 C 128.66666666666666 38.166666666666664 128.83333333333334 38.333333333333336 129.0 38.5 C 129.16666666666666 38.666666666666664 129.33333333333334 38.833333333333336 129.58333333333334 38.91666666666667 C 129.83333333333334 39.0 130.16666666666666 39.0 130.5 39.0 C 130.83333333333334 39.0 131.16666666666666 39.0 131.5 39.0 C 131.83333333333334 39.0 132.16666666666666 39.0 132.5 39.0 C 132.83333333333334 39.0 133.16666666666666 39.0 133.5 39.0 C 133.83333333333334 39.0 134.16666666666666 39.0 134.41666666666666 38.91666666666667 C 134.66666666666666 38.833333333333336 134.83333333333334 38.666666666666664 135.0 38.5 C 135.16666666666666 38.333333333333336 135.33333333333334 38.166666666666664 135.5 38.0 C 135.66666666666666 37.833333333333336 135.83333333333334 37.666666666666664 135.91666666666669 37.416666666666664 C 136.0 37.166666666666664 136.0 36.833333333333336 136.0 36.5 C 136.0 36.166666666666664 136.0 35.833333333333336 136.08333333333331 35.583333333333336 C 136.16666666666666 35.333333333333336 136.33333333333334 35.166666666666664 136.58333333333334 35.08333333333333 C 136.83333333333334 35.0 137.16666666666666 35.0 137.41666666666666 34.91666666666667 C 137.66666666666666 34.833333333333336 137.83333333333334 34.666666666666664 138.0 34.5 C 138.16666666666666 34.333333333333336 138.33333333333334 34.166666666666664 138.58333333333334 34.08333333333333 C 138.83333333333334 34.0 139.16666666666666 34.0 139.41666666666666 33.91666666666667 C 139.66666666666666 33.833333333333336 139.83333333333334 33.666666666666664 139.91666666666669 33.416666666666664 C 140.0 33.166666666666664 140.0 32.833333333333336 140.0 32.5 C 140.0 32.166666666666664 140.0 31.833333333333332 140.0 31.5 C 140.0 31.166666666666668 140.0 30.833333333333332 140.08333333333331 30.583333333333332 C 140.16666666666666 30.333333333333332 140.33333333333334 30.166666666666668 140.5 30.0 C 140.66666666666666 29.833333333333332 140.83333333333334 29.666666666666668 140.91666666666669 29.416666666666668 C 141.0 29.166666666666668 141.0 28.833333333333332 141.0 28.5 C 141.0 28.166666666666668 141.0 27.833333333333332 141.0 27.5 C 141.0 27.166666666666668 141.0 26.833333333333332 141.0 26.5 C 141.0 26.166666666666668 141.0 25.833333333333332 141.08333333333331 25.583333333333332 C 141.16666666666666 25.333333333333332 141.33333333333334 25.166666666666668 141.5 25.0 C 141.66666666666666 24.833333333333332 141.83333333333334 24.666666666666668 141.91666666666669 24.416666666666668 C 142.0 24.166666666666668 142.0 23.833333333333332 142.0 23.5 C 142.0 23.166666666666668 142.0 22.833333333333332 142.0 22.5 C 142.0 22.166666666666668 142.0 21.833333333333332 141.91666666666669 21.583333333333332 C 141.83333333333334 21.333333333333332 141.66666666666666 21.166666666666668 141.5 21.0 C 141.33333333333334 20.833333333333332 141.16666666666666 20.666666666666668 141.0 20.5 C 140.83333333333334 20.333333333333332 140.66666666666666 20.166666666666668 140.5 20.0 C 140.33333333333334 19.833333333333332 140.16666666666666 19.666666666666668 140.0 19.5 C 139.83333333333334 19.333333333333332 139.66666666666666 19.166666666666668 139.5 19.0 C 139.33333333333334 18.833333333333332 139.16666666666666 18.666666666666668 139.0 18.5 C 138.83333333333334 18.333333333333332 138.66666666666666 18.166666666666668 138.41666666666666 18.083333333333336 C 138.16666666666666 18.0 137.83333333333334 18.0 137.58333333333334 17.916666666666664 C 137.33333333333334 17.833333333333332 137.16666666666666 17.666666666666668 137.0 17.5 C 136.83333333333334 17.333333333333332 136.66666666666666 17.166666666666668 136.5 17.0 C 136.33333333333334 16.833333333333332 136.16666666666666 16.666666666666668 136.08333333333331 16.416666666666668 C 136.0 16.166666666666668 136.0 15.833333333333334 136.08333333333331 15.583333333333334 C 136.16666666666666 15.333333333333334 136.33333333333334 15.166666666666666 136.5 15.0 C 136.66666666666666 14.833333333333334 136.83333333333334 14.666666666666666 136.91666666666669 14.416666666666666 C 137.0 14.166666666666666 137.0 13.833333333333334 137.08333333333331 13.583333333333334 C 137.16666666666666 13.333333333333334 137.33333333333334 13.166666666666666 137.5 13.0 C 137.66666666666666 12.833333333333334 137.83333333333334 12.666666666666666 137.91666666666669 12.416666666666666 C 138.0 12.166666666666666 138.0 11.833333333333334 138.0 11.5 C 138.0 11.166666666666666 138.0 10.833333333333334 138.0 10.5 C 138.0 10.166666666666666 138.0 9.833333333333334 138.08333333333331 9.583333333333334 C 138.16666666666666 9.333333333333334 138.33333333333334 9.166666666666666 138.5 9.0 C 138.66666666666666 8.833333333333334 138.83333333333334 8.666666666666666 138.91666666666669 8.416666666666666 C 139.0 8.166666666666666 139.0 7.833333333333333 139.0 7.5 C 139.0 7.166666666666667 139.0 6.833333333333333 139.0 6.5 C 139.0 6.166666666666667 139.0 5.833333333333333 139.08333333333331 5.583333333333333 C 139.16666666666666 5.333333333333333 139.33333333333334 5.166666666666667 139.5 5.0 C 139.66666666666666 4.833333333333333 139.83333333333334 4.666666666666667 139.91666666666669 4.416666666666667 C 140.0 4.166666666666667 140.0 3.8333333333333335 139.91666666666669 3.5833333333333335 C 139.83333333333334 3.3333333333333335 139.66666666666666 3.1666666666666665 139.5 3.0 C 139.33333333333334 2.8333333333333335 139.16666666666666 2.6666666666666665 139.08333333333331 2.4166666666666665 C 139.0 2.1666666666666665 139.0 1.8333333333333333 138.91666666666669 1.5833333333333333 C 138.83333333333334 1.3333333333333333 138.66666666666666 1.1666666666666667 138.41666666666666 1.0833333333333335 C 138.16666666666666 1.0 137.83333333333334 1.0 137.58333333333334 0.9166666666666667 C 137.33333333333334 0.8333333333333334 137.16666666666666 0.6666666666666666 137.0 0.5 C 136.83333333333334 0.3333333333333333 136.66666666666666 0.16666666666666666 136.41666666666666 0.08333333333333333 C 136.16666666666666 0.0 135.83333333333334 0.0 135.5 0.0 C 135.16666666666666 0.0 134.83333333333334 0.0 134.5 0.0 C 134.16666666666666 0.0 133.83333333333334 0.0 133.5 0.0 C 133.16666666666666 0.0 132.83333333333334 0.0 132.5 0.0 C 132.16666666666666 0.0 131.83333333333334 0.0 131.58333333333334 0.08333333333333333 C 131.33333333333334 0.16666666666666666 131.16666666666666 0.3333333333333333 131.0 0.5 C 130.83333333333334 0.6666666666666666 130.66666666666666 0.8333333333333334 130.5 1.0 C 130.33333333333334 1.1666666666666667 130.16666666666666 1.3333333333333333 130.08333333333331 1.5833333333333333 C 130.0 1.8333333333333333 130.0 2.1666666666666665 130.0 2.5 C 130.0 2.8333333333333335 130.0 3.1666666666666665 130.0 3.5 C 130.0 3.8333333333333335 130.0 4.166666666666667 129.91666666666669 4.416666666666667 C 129.83333333333334 4.666666666666667 129.66666666666666 4.833333333333333 129.5 5.0 C 129.33333333333334 5.166666666666667 129.16666666666666 5.333333333333333 129.0 5.5 C 128.83333333333334 5.666666666666667 128.66666666666666 5.833333333333333 128.5 6.0 C 128.33333333333334 6.166666666666667 128.16666666666666 6.333333333333333 128.0 6.5 C 127.83333333333333 6.666666666666667 127.66666666666667 6.833333333333333 127.5 7.0 C 127.33333333333333 7.166666666666667 127.16666666666667 7.333333333333333 127.0 7.5 C 126.83333333333333 7.666666666666667 126.66666666666667 7.833333333333333 126.5 8.0 C 126.33333333333333 8.166666666666666 126.16666666666667 8.333333333333334 126.0 8.5 C 125.83333333333333 8.666666666666666 125.66666666666667 8.833333333333334 125.5 9.0 C 125.33333333333333 9.166666666666666 125.16666666666667 9.333333333333334 125.0 9.5 C 124.83333333333333 9.666666666666666 124.66666666666667 9.833333333333334 124.5 10.0 C 124.33333333333333 10.166666666666666 124.16666666666667 10.333333333333334 124.0 10.5 C 123.83333333333333 10.666666666666666 123.66666666666667 10.833333333333334 123.5 11.0 C 123.33333333333333 11.166666666666666 123.16666666666667 11.333333333333334 123.0 11.5 C 122.83333333333333 11.666666666666666 122.66666666666667 11.833333333333334 122.5 12.0 C 122.33333333333333 12.166666666666666 122.16666666666667 12.333333333333334 122.0 12.5 C 121.83333333333333 12.666666666666666 121.66666666666667 12.833333333333334 121.5 13.0 C 121.33333333333333 13.166666666666666 121.16666666666667 13.333333333333334 121.0 13.5 C 120.83333333333333 13.666666666666666 120.66666666666667 13.833333333333334 120.5 14.0 C 120.33333333333333 14.166666666666666 120.16666666666667 14.333333333333334 120.08333333333334 14.583333333333334 C 120.0 14.833333333333334 120.0 15.166666666666666 119.91666666666666 15.416666666666666 C 119.83333333333333 15.666666666666666 119.66666666666667 15.833333333333334 119.5 16.0 C 119.33333333333333 16.166666666666668 119.16666666666667 16.333333333333332 119.08333333333334 16.583333333333332 C 119.0 16.833333333333332 119.0 17.166666666666668 119.0 17.5 C 119.0 17.833333333333332 119.0 18.166666666666668 119.08333333333334 18.416666666666668 C 119.16666666666667 18.666666666666668 119.33333333333333 18.833333333333332 119.5 19.0 C 119.66666666666667 19.166666666666668 119.83333333333333 19.333333333333332 119.91666666666666 19.583333333333332 C 120.0 19.833333333333332 120.0 20.166666666666668 120.0 20.5 C 120.0 20.833333333333332 120.0 21.166666666666668 120.0 21.5 C 120.0 21.833333333333332 120.0 22.166666666666668 120.0 22.5 C 120.0 22.833333333333332 120.0 23.166666666666668 120.08333333333334 23.416666666666668 C 120.16666666666667 23.666666666666668 120.33333333333333 23.833333333333332 120.5 24.0 C 120.66666666666667 24.166666666666668 120.83333333333333 24.333333333333332 120.91666666666666 24.583333333333332 C 121.0 24.833333333333332 121.0 25.166666666666668 120.91666666666666 25.416666666666668 C 120.83333333333333 25.666666666666668 120.66666666666667 25.833333333333332 120.5 26.0 C 120.33333333333333 26.166666666666668 120.16666666666667 26.333333333333332 120.0 26.5 C 119.83333333333333 26.666666666666668 119.66666666666667 26.833333333333332 119.5 27.0 C 119.33333333333333 27.166666666666668 119.16666666666667 27.333333333333332 119.0 27.5 C 118.83333333333333 27.666666666666668 118.66666666666667 27.833333333333332 118.41666666666667 27.916666666666664 C 118.16666666666667 28.0 117.83333333333333 28.0 117.5 28.0 C 117.16666666666667 28.0 116.83333333333333 28.0 116.5 28.0 C 116.16666666666667 28.0 115.83333333333333 28.0 115.58333333333333 28.083333333333336 C 115.33333333333333 28.166666666666668 115.16666666666667 28.333333333333332 115.0 28.5 C 114.83333333333333 28.666666666666668 114.66666666666667 28.833333333333332 114.41666666666667 28.916666666666664 C 114.16666666666667 29.0 113.83333333333333 29.0 113.5 29.0 C 113.16666666666667 29.0 112.83333333333333 29.0 112.5 29.0 C 112.16666666666667 29.0 111.83333333333333 29.0 111.5 29.0 C 111.16666666666667 29.0 110.83333333333333 29.0 110.5 29.0 C 110.16666666666667 29.0 109.83333333333333 29.0 109.58333333333333 29.083333333333336 C 109.33333333333333 29.166666666666668 109.16666666666667 29.333333333333332 109.0 29.5 C 108.83333333333333 29.666666666666668 108.66666666666667 29.833333333333332 108.5 30.0 C 108.33333333333333 30.166666666666668 108.16666666666667 30.333333333333332 108.0 30.5 C 107.83333333333333 30.666666666666668 107.66666666666667 30.833333333333332 107.5 31.0 C 107.33333333333333 31.166666666666668 107.16666666666667 31.333333333333332 107.08333333333334 31.583333333333332 C 107.0 31.833333333333332 107.0 32.166666666666664 107.08333333333334 32.416666666666664 C 107.16666666666667 32.666666666666664 107.33333333333333 32.833333333333336 107.5 33.0 C 107.66666666666667 33.166666666666664 107.83333333333333 33.333333333333336 107.83333333333333 33.5 C 107.83333333333333 33.666666666666664 107.66666666666667 33.833333333333336 107.5 34.0 C 107.33333333333333 34.166666666666664 107.16666666666667 34.333333333333336 107.08333333333334 34.583333333333336 C 107.0 34.833333333333336 107.0 35.166666666666664 107.08333333333334 35.416666666666664 C 107.16666666666667 35.666666666666664 107.33333333333333 35.833333333333336 107.5 36.0 C 107.66666666666667 36.166666666666664 107.83333333333333 36.333333333333336 108.0 36.5 C 108.16666666666667 36.666666666666664 108.33333333333333 36.833333333333336 108.58333333333333 36.91666666666667 C 108.83333333333333 37.0 109.16666666666667 37.0 109.5 37.0 C 109.83333333333333 37.0 110.16666666666667 37.0 110.5 37.0 C 110.83333333333333 37.0 111.16666666666667 37.0 111.41666666666667 36.91666666666667 C 111.66666666666667 36.833333333333336 111.83333333333333 36.666666666666664 112.0 36.5 C 112.16666666666667 36.333333333333336 112.33333333333333 36.166666666666664 112.5 36.0 C 112.66666666666667 35.833333333333336 112.83333333333333 35.666666666666664 113.0 35.5 C 113.16666666666667 35.333333333333336 113.33333333333333 35.166666666666664 113.5 35.0 C 113.66666666666667 34.833333333333336 113.83333333333333 34.666666666666664 114.0 34.5 C 114.16666666666667 34.333333333333336 114.33333333333333 34.166666666666664 114.5 34.0 C 114.66666666666667 33.833333333333336 114.83333333333333 33.666666666666664 115.0 33.5 C 115.16666666666667 33.333333333333336 115.33333333333333 33.166666666666664 115.5 33.0 C 115.66666666666667 32.833333333333336 115.83333333333333 32.666666666666664 116.0 32.5 C 116.16666666666667 32.333333333333336 116.33333333333333 32.166666666666664 116.5 32.0 C 116.66666666666667 31.833333333333332 116.83333333333333 31.666666666666668 117.0 31.5 C 117.16666666666667 31.333333333333332 117.33333333333333 31.166666666666668 117.58333333333333 31.083333333333336 C 117.83333333333333 31.0 118.16666666666667 31.0 118.5 31.0 C 118.83333333333333 31.0 119.16666666666667 31.0 119.41666666666667 31.083333333333336 C 119.66666666666667 31.166666666666668 119.83333333333333 31.333333333333332 120.0 31.5 C 120.16666666666667 31.666666666666668 120.33333333333333 31.833333333333332 120.58333333333333 31.916666666666664 C 120.83333333333333 32.0 121.16666666666667 32.0 121.41666666666667 32.08333333333333 C 121.66666666666667 32.166666666666664 121.83333333333333 32.333333333333336 122.0 32.5 C 122.16666666666667 32.666666666666664 122.33333333333333 32.833333333333336 122.58333333333333 32.91666666666667 C 122.83333333333333 33.0 123.16666666666667 33.0 123.41666666666667 33.08333333333333" fill="none"/><path stroke="rgb(0,0,255)" stroke-width="0.03125" d="M 500.5 214.0 C 500.1666666666667 214.0 499.8333333333333 214.0 499.5 214.0 C 499.1666666666667 214.0 498.8333333333333 214.0 498.5833333333333 214.08333333333331 C 498.3333333333333 214.16666666666666 498.1666666666667 214.33333333333334 498.0 214.5 C 497.8333333333333 214.66666666666666 497.6666666666667 214.83333333333334 497.4166666666667 214.91666666666669 C 497.1666666666667 215.0 496.8333333333333 215.0 496.5 215.0 C 496.1666666666667 215.0 495.8333333333333 215.0 495.5833333333333 215.08333333333331 C 495.3333333333333 215.16666666666666 495.1666666666667 215.33333333333334 495.08333333333337 215.58333333333334 C 495.0 215.83333333333334 495.0 216.16666666666666 494.91666666666663 216.41666666666666 C 494.8333333333333 216.66666666666666 494.6666666666667 216.83333333333334 494.5 217.0 C 494.3333333333333 217.16666666666666 494.1666666666667 217.33333333333334 494.08333333333337 217.58333333333334 C 494.0 217.83333333333334 494.0 218.16666666666666 494.0 218.5 C 494.0 218.83333333333334 494.0 219.16666666666666 494.0 219.5 C 494.0 219.83333333333334 494.0 220.16666666666666 494.08333333333337 220.41666666666666 C 494.1666666666667 220.66666666666666 494.3333333333333 220.83333333333334 494.5 221.0 C 494.6666666666667 221.16666666666666 494.8333333333333 221.33333333333334 494.91666666666663 221.58333333333334 C 495.0 221.83333333333334 495.0 222.16666666666666 494.91666666666663 222.41666666666666 C 494.8333333333333 222.66666666666666 494.6666666666667 222.83333333333334 494.5 223.0 C 494.3333333333333 223.16666666666666 494.1666666666667 223.33333333333334 494.08333333333337 223.58333333333334 C 494.0 223.83333333333334 494.0 224.16666666666666 493.91666666666663 224.41666666666666 C 493.8333333333333 224.66666666666666 493.6666666666667 224.83333333333334 493.5 225.0 C 493.3333333333333 225.16666666666666 493.1666666666667 225.33333333333334 493.1666666666667 225.5 C 493.1666666666667 225.66666666666666 493.3333333333333 225.83333333333334 493.5 226.0 C 493.6666666666667 226.16666666666666 493.8333333333333 226.33333333333334 494.0 226.5 C 494.1666666666667 226.66666666666666 494.3333333333333 226.83333333333334 494.5833333333333 226.91666666666669 C 494.8333333333333 227.0 495.1666666666667 227.0 495.4166666666667 226.91666666666669 C 495.6666666666667 226.83333333333334 495.8333333333333 226.66666666666666 496.0 226.5 C 496.1666666666667 226.33333333333334 496.3333333333333 226.16666666666666 496.5833333333333 226.08333333333331 C 496.8333333333333 226.0 497.1666666666667 226.0 497.5 226.0 C 497.8333333333333 226.0 498.1666666666667 226.0 498.5 226.0 C 498.8333333333333 226.0 499.1666666666667 226.0 499.4166666666667 225.91666666666669 C 499.6666666666667 225.83333333333334 499.8333333333333 225.66666666666666 500.0 225.5 C 500.1666666666667 225.33333333333334 500.3333333333333 225.16666666666666 500.5833333333333 225.08333333333331 C 500.8333333333333 225.0 501.1666666666667 225.0 501.4166666666667 224.91666666666669 C 501.6666666666667 224.83333333333334 501.8333333333333 224.66666666666666 502.0 224.5 C 502.1666666666667 224.33333333333334 502.3333333333333 224.16666666666666 502.5833333333333 224.08333333333331 C 502.8333333333333 224.0 503.1666666666667 224.0 503.5 224.0 C 503.8333333333333 224.0 504.1666666666667 224.0 504.5 224.0 C 504.8333333333333 224.0 505.1666666666667 224.0 505.4166666666667 223.91666666666669 C 505.6666666666667 223.83333333333334 505.8333333333333 223.66666666666666 506.0 223.5 C 506.1666666666667 223.33333333333334 506.3333333333333 223.16666666666666 506.5 223.0 C 506.6666666666667 222.83333333333334 506.8333333333333 222.66666666666666 507.0 222.5 C 507.1666666666667 222.33333333333334 507.3333333333333 222.16666666666666 507.5833333333333 222.08333333333331 C 507.8333333333333 222.0 508.1666666666667 222.0 508.5 222.0 C 508.8333333333333 222.0 509.1666666666667 222.0 509.5 222.0 C 509.8333333333333 222.0 510.1666666666667 222.0 510.5 222.0 C 510.8333333333333 222.0 511.1666666666667 222.0 511.5 222.0 C 511.8333333333333 222.0 512.1666666666666 222.0 512.4166666666666 221.91666666666669 C 512.6666666666666 221.83333333333334 512.8333333333334 221.66666666666666 512.8333333333334 221.5 C 512.8333333333334 221.33333333333334 512.6666666666666 221.16666666666666 512.5 221.0 C 512.3333333333334 220.83333333333334 512.1666666666666 220.66666666666666 512.0 220.5 C 511.8333333333333 220.33333333333334 511.6666666666667 220.16666666666666 511.4166666666667 220.08333333333331 C 511.1666666666667 220.0 510.8333333333333 220.0 510.5833333333333 219.91666666666669 C 510.3333333333333 219.83333333333334 510.1666666666667 219.66666666666666 510.08333333333337 219.41666666666666 C 510.0 219.16666666666666 510.0 218.83333333333334 510.0 218.5 C 510.0 218.16666666666666 510.0 217.83333333333334 510.0 217.5 C 510.0 217.16666666666666 510.0 216.83333333333334 509.91666666666663 216.58333333333334 C 509.8333333333333 216.33333333333334 509.6666666666667 216.16666666666666 509.4166666666667 216.08333333333331 C 509.1666666666667 216.0 508.8333333333333 216.0 508.5 216.0 C 508.1666666666667 216.0 507.8333333333333 216.0 507.5833333333333 215.91666666666669 C 507.3333333333333 215.83333333333334 507.1666666666667 215.66666666666666 507.0 215.5 C 506.8333333333333 215.33333333333334 506.6666666666667 215.16666666666666 506.4166666666667 215.08333333333331 C 506.1666666666667 215.0 505.8333333333333 215.0 505.5 215.0 C 505.1666666666667 215.0 504.8333333333333 215.0 504.5 215.0 C 504.1666666666667 215.0 503.8333333333333 215.0 503.5 215.0 C 503.1666666666667 215.0 502.8333333333333 215.0 502.5833333333333 214.91666666666669 C 502.3333333333333 214.83333333333334 502.1666666666667 214.66666666666666 502.0 214.5 C 501.8333333333333 214.33333333333334 501.6666666666667 214.16666666666666 501.4166666666667 214.08333333333331 C 501.1666666666667 214.0 500.8333333333333 214.0 500.5 214.0" fill="none"/><path stroke="rgb(0,0,255)" stroke-width="0.03125" d="M 55.5 0.0 C 55.166666666666664 0.0 54.833333333333336 0.0 54.5 0.0 C 54.166666666666664 0.0 53.833333333333336 0.0 53.5 0.0 C 53.166666666666664 0.0 52.833333333333336 0.0 52.5 0.0 C 52.166666666666664 0.0 51.833333333333336 0.0 51.5 0.0 C 51.166666666666664 0.0 50.833333333333336 0.0 50.5 0.0 C 50.166666666666664 0.0 49.833333333333336 0.0 49.5 0.0 C 49.166666666666664 0.0 48.833333333333336 0.0 48.5 0.0 C 48.166666666666664 0.0 47.833333333333336 0.0 47.5 0.0 C 47.166666666666664 0.0 46.833333333333336 0.0 46.5 0.0 C 46.166666666666664 0.0 45.833333333333336 0.0 45.5 0.0 C 45.166666666666664 0.0 44.833333333333336 0.0 44.5 0.0 C 44.166666666666664 0.0 43.833333333333336 0.0 43.5 0.0 C 43.166666666666664 0.0 42.833333333333336 0.0 42.5 0.0 C 42.166666666666664 0.0 41.833333333333336 0.0 41.5 0.0 C 41.166666666666664 0.0 40.833333333333336 0.0 40.5 0.0 C 40.166666666666664 0.0 39.833333333333336 0.0 39.5 0.0 C 39.166666666666664 0.0 38.833333333333336 0.0 38.5 0.0 C 38.166666666666664 0.0 37.833333333333336 0.0 37.5 0.0 C 37.166666666666664 0.0 36.833333333333336 0.0 36.5 0.0 C 36.166666666666664 0.0 35.833333333333336 0.0 35.5 0.0 C 35.166666666666664 0.0 34.833333333333336 0.0 34.5 0.0 C 34.166666666666664 0.0 33.833333333333336 0.0 33.5 0.0 C 33.166666666666664 0.0 32.833333333333336 0.0 32.5 0.0 C 32.166666666666664 0.0 31.833333333333332 0.0 31.5 0.0 C 31.166666666666668 0.0 30.833333333333332 0.0 30.5 0.0 C 30.166666666666668 0.0 29.833333333333332 0.0 29.5 0.0 C 29.166666666666668 0.0 28.833333333333332 0.0 28.5 0.0 C 28.166666666666668 0.0 27.833333333333332 0.0 27.5 0.0 C 27.166666666666668 0.0 26.833333333333332 0.0 26.5 0.0 C 26.166666666666668 0.0 25.833333333333332 0.0 25.5 0.0 C 25.166666666666668 0.0 24.833333333333332 0.0 24.5 0.0 C 24.166666666666668 0.0 23.833333333333332 0.0 23.5 0.0 C 23.166666666666668 0.0 22.833333333333332 0.0 22.5 0.0 C 22.166666666666668 0.0 21.833333333333332 0.0 21.5 0.0 C 21.166666666666668 0.0 20.833333333333332 0.0 20.5 0.0 C 20.166666666666668 0.0 19.833333333333332 0.0 19.5 0.0 C 19.166666666666668 0.0 18.833333333333332 0.0 18.5 0.0 C 18.166666666666668 0.0 17.833333333333332 0.0 17.5 0.0 C 17.166666666666668 0.0 16.833333333333332 0.0 16.5 0.0 C 16.166666666666668 0.0 15.833333333333334 0.0 15.5 0.0 C 15.166666666666666 0.0 14.833333333333334 0.0 14.5 0.0 C 14.166666666666666 0.0 13.833333333333334 0.0 13.5 0.0 C 13.166666666666666 0.0 12.833333333333334 0.0 12.5 0.0 C 12.166666666666666 0.0 11.833333333333334 0.0 11.5 0.0 C 11.166666666666666 0.0 10.833333333333334 0.0 10.5 0.0 C 10.166666666666666 0.0 9.833333333333334 0.0 9.5 0.0 C 9.166666666666666 0.0 8.833333333333334 0.0 8.5 0.0 C 8.166666666666666 0.0 7.833333333333333 0.0 7.5 0.0 C 7.166666666666667 0.0 6.833333333333333 0.0 6.583333333333333 0.08333333333333333 C 6.333333333333333 0.16666666666666666 6.166666666666667 0.3333333333333333 6.0 0.5 C 5.833333333333333 0.6666666666666666 5.666666666666667 0.8333333333333334 5.5 1.0 C 5.333333333333333 1.1666666666666667 5.166666666666667 1.3333333333333333 5.0 1.5 C 4.833333333333333 1.6666666666666667 4.666666666666667 1.8333333333333333 4.5 2.0 C 4.333333333333333 2.1666666666666665 4.166666666666667 2.3333333333333335 4.083333333333334 2.5833333333333335 C 4.0 2.8333333333333335 4.0 3.1666666666666665 3.916666666666667 3.4166666666666665 C 3.8333333333333335 3.6666666666666665 3.6666666666666665 3.8333333333333335 3.4166666666666665 3.916666666666667 C 3.1666666666666665 4.0 2.8333333333333335 4.0 2.5833333333333335 4.083333333333334 C 2.3333333333333335 4.166666666666667 2.1666666666666665 4.333333333333333 2.083333333333333 4.583333333333333 C 2.0 4.833333333333333 2.0 5.166666666666667 2.0 5.5 C 2.0 5.833333333333333 2.0 6.166666666666667 1.9166666666666665 6.416666666666667 C 1.8333333333333333 6.666666666666667 1.6666666666666667 6.833333333333333 1.5 7.0 C 1.3333333333333333 7.166666666666667 1.1666666666666667 7.333333333333333 1.0833333333333335 7.583333333333333 C 1.0 7.833333333333333 1.0 8.166666666666666 1.0 8.5 C 1.0 8.833333333333334 1.0 9.166666666666666 0.9166666666666667 9.416666666666666 C 0.8333333333333334 9.666666666666666 0.6666666666666666 9.833333333333334 0.5 10.0 C 0.3333333333333333 10.166666666666666 0.16666666666666666 10.333333333333334 0.08333333333333333 10.583333333333334 C 0.0 10.833333333333334 0.0 11.166666666666666 0.0 11.5 C 0.0 11.833333333333334 0.0 12.166666666666666 0.0 12.5 C 0.0 12.833333333333334 0.0 13.166666666666666 0.0 13.5 C 0.0 13.833333333333334 0.0 14.166666666666666 0.0 14.5 C 0.0 14.833333333333334 0.0 15.166666666666666 0.0 15.5 C 0.0 15.833333333333334 0.0 16.166666666666668 0.0 16.5 C 0.0 16.833333333333332 0.0 17.166666666666668 0.0 17.5 C 0.0 17.833333333333332 0.0 18.166666666666668 0.0 18.5 C 0.0 18.833333333333332 0.0 19.166666666666668 0.0 19.5 C 0.0 19.833333333333332 0.0 20.166666666666668 0.0 20.5 C 0.0 20.833333333333332 0.0 21.166666666666668 0.0 21.5 C 0.0 21.833333333333332 0.0 22.166666666666668 0.0 22.5 C 0.0 22.833333333333332 0.0 23.166666666666668 0.0 23.5 C 0.0 23.833333333333332 0.0 24.166666666666668 0.0 24.5 C 0.0 24.833333333333332 0.0 25.166666666666668 0.0 25.5 C 0.0 25.833333333333332 0.0 26.166666666666668 0.0 26.5 C 0.0 26.833333333333332 0.0 27.166666666666668 0.0 27.5 C 0.0 27.833333333333332 0.0 28.166666666666668 0.0 28.5 C 0.0 28.833333333333332 0.0 29.166666666666668 0.0 29.5 C 0.0 29.833333333333332 0.0 30.166666666666668 0.0 30.5 C 0.0 30.833333333333332 0.0 31.166666666666668 0.0 31.5 C 0.0 31.833333333333332 0.0 32.166666666666664 0.0 32.5 C 0.0 32.833333333333336 0.0 33.166666666666664 0.0 33.5 C 0.0 33.833333333333336 0.0 34.166666666666664 0.0 34.5 C 0.0 34.833333333333336 0.0 35.166666666666664 0.0 35.5 C 0.0 35.833333333333336 0.0 36.166666666666664 0.08333333333333333 36.416666666666664 C 0.16666666666666666 36.666666666666664 0.3333333333333333 36.833333333333336 0.5 36.833333333333336 C 0.6666666666666666 36.833333333333336 0.8333333333333334 36.666666666666664 1.0 36.5 C 1.1666666666666667 36.333333333333336 1.3333333333333333 36.166666666666664 1.5 36.0 C 1.6666666666666667 35.833333333333336 1.8333333333333333 35.666666666666664 2.0 35.5 C 2.1666666666666665 35.333333333333336 2.3333333333333335 35.166666666666664 2.5833333333333335 35.08333333333333 C 2.8333333333333335 35.0 3.1666666666666665 35.0 3.5 35.0 C 3.8333333333333335 35.0 4.166666666666667 35.0 4.416666666666667 34.91666666666667 C 4.666666666666667 34.833333333333336 4.833333333333333 34.666666666666664 5.0 34.5 C 5.166666666666667 34.333333333333336 5.333333333333333 34.166666666666664 5.583333333333333 34.08333333333333 C 5.833333333333333 34.0 6.166666666666667 34.0 6.416666666666667 33.91666666666667 C 6.666666666666667 33.833333333333336 6.833333333333333 33.666666666666664 7.0 33.5 C 7.166666666666667 33.333333333333336 7.333333333333333 33.166666666666664 7.5 33.0 C 7.666666666666667 32.833333333333336 7.833333333333333 32.666666666666664 8.0 32.5 C 8.166666666666666 32.333333333333336 8.333333333333334 32.166666666666664 8.5 32.0 C 8.666666666666666 31.833333333333332 8.833333333333334 31.666666666666668 8.916666666666668 31.416666666666668 C 9.0 31.166666666666668 9.0 30.833333333333332 9.0 30.5 C 9.0 30.166666666666668 9.0 29.833333333333332 9.083333333333332 29.583333333333332 C 9.166666666666666 29.333333333333332 9.333333333333334 29.166666666666668 9.5 29.0 C 9.666666666666666 28.833333333333332 9.833333333333334 28.666666666666668 10.0 28.5 C 10.166666666666666 28.333333333333332 10.333333333333334 28.166666666666668 10.583333333333334 28.083333333333336 C 10.833333333333334 28.0 11.166666666666666 28.0 11.5 28.0 C 11.833333333333334 28.0 12.166666666666666 28.0 12.5 28.0 C 12.833333333333334 28.0 13.166666666666666 28.0 13.416666666666666 27.916666666666664 C 13.666666666666666 27.833333333333332 13.833333333333334 27.666666666666668 14.0 27.5 C 14.166666666666666 27.333333333333332 14.333333333333334 27.166666666666668 14.5 27.0 C 14.666666666666666 26.833333333333332 14.833333333333334 26.666666666666668 15.0 26.5 C 15.166666666666666 26.333333333333332 15.333333333333334 26.166666666666668 15.5 26.0 C 15.666666666666666 25.833333333333332 15.833333333333334 25.666666666666668 16.0 25.5 C 16.166666666666668 25.333333333333332 16.333333333333332 25.166666666666668 16.5 25.0 C 16.666666666666668 24.833333333333332 16.833333333333332 24.666666666666668 17.0 24.5 C 17.166666666666668 24.333333333333332 17.333333333333332 24.166666666666668 17.5 24.0 C 17.666666666666668 23.833333333333332 17.833333333333332 23.666666666666668 17.916666666666664 23.416666666666668 C 18.0 23.166666666666668 18.0 22.833333333333332 18.083333333333336 22.583333333333332 C 18.166666666666668 22.333333333333332 18.333333333333332 22.166666666666668 18.5 22.0 C 18.666666666666668 21.833333333333332 18.833333333333332 21.666666666666668 19.0 21.5 C 19.166666666666668 21.333333333333332 19.333333333333332 21.166666666666668 19.583333333333332 21.083333333333336 C 19.833333333333332 21.0 20.166666666666668 21.0 20.5 21.0 C 20.833333333333332 21.0 21.166666666666668 21.0 21.416666666666668 21.083333333333336 C 21.666666666666668 21.166666666666668 21.833333333333332 21.333333333333332 22.0 21.5 C 22.166666666666668 21.666666666666668 22.333333333333332 21.833333333333332 22.583333333333332 21.916666666666664 C 22.833333333333332 22.0 23.166666666666668 22.0 23.5 22.0 C 23.833333333333332 22.0 24.166666666666668 22.0 24.5 22.0 C 24.833333333333332 22.0 25.166666666666668 22.0 25.416666666666668 21.916666666666664 C 25.666666666666668 21.833333333333332 25.833333333333332 21.666666666666668 26.0 21.5 C 26.166666666666668 21.333333333333332 26.333333333333332 21.166666666666668 26.5 21.0 C 26.666666666666668 20.833333333333332 26.833333333333332 20.666666666666668 26.916666666666664 20.416666666666668 C 27.0 20.166666666666668 27.0 19.833333333333332 27.0 19.5 C 27.0 19.166666666666668 27.0 18.833333333333332 27.083333333333336 18.583333333333332 C 27.166666666666668 18.333333333333332 27.333333333333332 18.166666666666668 27.583333333333332 18.083333333333336 C 27.833333333333332 18.0 28.166666666666668 18.0 28.416666666666668 18.083333333333336 C 28.666666666666668 18.166666666666668 28.833333333333332 18.333333333333332 29.0 18.5 C 29.166666666666668 18.666666666666668 29.333333333333332 18.833333333333332 29.5 18.833333333333332 C 29.666666666666668 18.833333333333332 29.833333333333332 18.666666666666668 30.0 18.5 C 30.166666666666668 18.333333333333332 30.333333333333332 18.166666666666668 30.583333333333332 18.083333333333336 C 30.833333333333332 18.0 31.166666666666668 18.0 31.5 18.0 C 31.833333333333332 18.0 32.166666666666664 18.0 32.5 18.0 C 32.833333333333336 18.0 33.166666666666664 18.0 33.416666666666664 17.916666666666664 C 33.666666666666664 17.833333333333332 33.833333333333336 17.666666666666668 34.0 17.5 C 34.166666666666664 17.333333333333332 34.333333333333336 17.166666666666668 34.583333333333336 17.083333333333336 C 34.833333333333336 17.0 35.166666666666664 17.0 35.5 17.0 C 35.833333333333336 17.0 36.166666666666664 17.0 36.5 17.0 C 36.833333333333336 17.0 37.166666666666664 17.0 37.5 17.0 C 37.833333333333336 17.0 38.166666666666664 17.0 38.416666666666664 16.916666666666664 C 38.666666666666664 16.833333333333332 38.833333333333336 16.666666666666668 39.0 16.5 C 39.166666666666664 16.333333333333332 39.333333333333336 16.166666666666668 39.583333333333336 16.083333333333336 C 39.833333333333336 16.0 40.166666666666664 16.0 40.5 16.0 C 40.833333333333336 16.0 41.166666666666664 16.0 41.5 16.0 C 41.833333333333336 16.0 42.166666666666664 16.0 42.416666666666664 15.916666666666668 C 42.666666666666664 15.833333333333334 42.833333333333336 15.666666666666666 42.91666666666667 15.416666666666666 C 43.0 15.166666666666666 43.0 14.833333333333334 43.08333333333333 14.583333333333334 C 43.166666666666664 14.333333333333334 43.333333333333336 14.166666666666666 43.5 14.0 C 43.666666666666664 13.833333333333334 43.833333333333336 13.666666666666666 44.0 13.5 C 44.166666666666664 13.333333333333334 44.333333333333336 13.166666666666666 44.583333333333336 13.083333333333332 C 44.833333333333336 13.0 45.166666666666664 13.0 45.5 13.0 C 45.833333333333336 13.0 46.166666666666664 13.0 46.5 13.0 C 46.833333333333336 13.0 47.166666666666664 13.0 47.416666666666664 12.916666666666668 C 47.666666666666664 12.833333333333334 47.833333333333336 12.666666666666666 48.0 12.5 C 48.166666666666664 12.333333333333334 48.333333333333336 12.166666666666666 48.583333333333336 12.083333333333332 C 48.833333333333336 12.0 49.166666666666664 12.0 49.5 12.0 C 49.833333333333336 12.0 50.166666666666664 12.0 50.5 12.0 C 50.833333333333336 12.0 51.166666666666664 12.0 51.5 12.0 C 51.833333333333336 12.0 52.166666666666664 12.0 52.5 12.0 C 52.833333333333336 12.0 53.166666666666664 12.0 53.5 12.0 C 53.833333333333336 12.0 54.166666666666664 12.0 54.5 12.0 C 54.833333333333336 12.0 55.166666666666664 12.0 55.5 12.0 C 55.833333333333336 12.0 56.166666666666664 12.0 56.5 12.0 C 56.833333333333336 12.0 57.166666666666664 12.0 57.5 12.0 C 57.833333333333336 12.0 58.166666666666664 12.0 58.5 12.0 C 58.833333333333336 12.0 59.166666666666664 12.0 59.5 12.0 C 59.833333333333336 12.0 60.166666666666664 12.0 60.5 12.0 C 60.833333333333336 12.0 61.166666666666664 12.0 61.416666666666664 11.916666666666668 C 61.666666666666664 11.833333333333334 61.833333333333336 11.666666666666666 62.0 11.5 C 62.166666666666664 11.333333333333334 62.333333333333336 11.166666666666666 62.583333333333336 11.083333333333332 C 62.833333333333336 11.0 63.166666666666664 11.0 63.416666666666664 10.916666666666668 C 63.666666666666664 10.833333333333334 63.833333333333336 10.666666666666666 64.0 10.5 C 64.16666666666667 10.333333333333334 64.33333333333333 10.166666666666666 64.5 10.0 C 64.66666666666667 9.833333333333334 64.83333333333333 9.666666666666666 65.0 9.5 C 65.16666666666667 9.333333333333334 65.33333333333333 9.166666666666666 65.5 9.0 C 65.66666666666667 8.833333333333334 65.83333333333333 8.666666666666666 65.91666666666666 8.416666666666666 C 66.0 8.166666666666666 66.0 7.833333333333333 66.08333333333334 7.583333333333333 C 66.16666666666667 7.333333333333333 66.33333333333333 7.166666666666667 66.58333333333333 7.083333333333334 C 66.83333333333333 7.0 67.16666666666667 7.0 67.41666666666667 6.916666666666666 C 67.66666666666667 6.833333333333333 67.83333333333333 6.666666666666667 68.0 6.5 C 68.16666666666667 6.333333333333333 68.33333333333333 6.166666666666667 68.5 6.0 C 68.66666666666667 5.833333333333333 68.83333333333333 5.666666666666667 68.91666666666666 5.416666666666667 C 69.0 5.166666666666667 69.0 4.833333333333333 69.08333333333334 4.583333333333333 C 69.16666666666667 4.333333333333333 69.33333333333333 4.166666666666667 69.5 4.0 C 69.66666666666667 3.8333333333333335 69.83333333333333 3.6666666666666665 70.0 3.5 C 70.16666666666667 3.3333333333333335 70.33333333333333 3.1666666666666665 70.5 3.0 C 70.66666666666667 2.8333333333333335 70.83333333333333 2.6666666666666665 71.0 2.5 C 71.16666666666667 2.3333333333333335 71.33333333333333 2.1666666666666665 71.5 2.0 C 71.66666666666667 1.8333333333333333 71.83333333333333 1.6666666666666667 72.0 1.5 C 72.16666666666667 1.3333333333333333 72.33333333333333 1.1666666666666667 72.5 1.0 C 72.66666666666667 0.8333333333333334 72.83333333333333 0.6666666666666666 72.83333333333333 0.5 C 72.83333333333333 0.3333333333333333 72.66666666666667 0.16666666666666666 72.41666666666667 0.08333333333333333 C 72.16666666666667 0.0 71.83333333333333 0.0 71.5 0.0 C 71.16666666666667 0.0 70.83333333333333 0.0 70.5 0.0 C 70.16666666666667 0.0 69.83333333333333 0.0 69.5 0.0 C 69.16666666666667 0.0 68.83333333333333 0.0 68.5 0.0 C 68.16666666666667 0.0 67.83333333333333 0.0 67.5 0.0 C 67.16666666666667 0.0 66.83333333333333 0.0 66.5 0.0 C 66.16666666666667 0.0 65.83333333333333 0.0 65.5 0.0 C 65.16666666666667 0.0 64.83333333333333 0.0 64.5 0.0 C 64.16666666666667 0.0 63.833333333333336 0.0 63.5 0.0 C 63.166666666666664 0.0 62.833333333333336 0.0 62.5 0.0 C 62.166666666666664 0.0 61.833333333333336 0.0 61.5 0.0 C 61.166666666666664 0.0 60.833333333333336 0.0 60.5 0.0 C 60.166666666666664 0.0 59.833333333333336 0.0 59.5 0.0 C 59.166666666666664 0.0 58.833333333333336 0.0 58.5 0.0 C 58.166666666666664 0.0 57.833333333333336 0.0 57.5 0.0 C 57.166666666666664 0.0 56.833333333333336 0.0 56.5 0.0 C 56.166666666666664 0.0 55.833333333333336 0.0 55.5 0.0" fill="none"/><path stroke="rgb(0,0,255)" stroke-width="0.03125" d="M 459.5 92.0 C 459.3333333333333 92.16666666666667 459.1666666666667 92.33333333333333 459.0 92.5 C 458.8333333333333 92.66666666666667 458.6666666666667 92.83333333333333 458.5 93.0 C 458.3333333333333 93.16666666666667 458.1666666666667 93.33333333333333 458.08333333333337 93.58333333333333 C 458.0 93.83333333333333 458.0 94.16666666666667 458.0 94.5 C 458.0 94.83333333333333 458.0 95.16666666666667 458.08333333333337 95.41666666666667 C 458.1666666666667 95.66666666666667 458.3333333333333 95.83333333333333 458.5 96.0 C 458.6666666666667 96.16666666666667 458.8333333333333 96.33333333333333 459.0 96.5 C 459.1666666666667 96.66666666666667 459.3333333333333 96.83333333333333 459.5833333333333 96.91666666666666 C 459.8333333333333 97.0 460.1666666666667 97.0 460.5 97.0 C 460.8333333333333 97.0 461.1666666666667 97.0 461.5 97.0 C 461.8333333333333 97.0 462.1666666666667 97.0 462.4166666666667 96.91666666666666 C 462.6666666666667 96.83333333333333 462.8333333333333 96.66666666666667 463.0 96.5 C 463.1666666666667 96.33333333333333 463.3333333333333 96.16666666666667 463.5833333333333 96.08333333333334 C 463.8333333333333 96.0 464.1666666666667 96.0 464.5 96.0 C 464.8333333333333 96.0 465.1666666666667 96.0 465.5 96.0 C 465.8333333333333 96.0 466.1666666666667 96.0 466.4166666666667 95.91666666666666 C 466.6666666666667 95.83333333333333 466.8333333333333 95.66666666666667 467.0 95.5 C 467.1666666666667 95.33333333333333 467.3333333333333 95.16666666666667 467.5 95.0 C 467.6666666666667 94.83333333333333 467.8333333333333 94.66666666666667 468.0 94.5 C 468.1666666666667 94.33333333333333 468.3333333333333 94.16666666666667 468.5 94.0 C 468.6666666666667 93.83333333333333 468.8333333333333 93.66666666666667 469.0 93.5 C 469.1666666666667 93.33333333333333 469.3333333333333 93.16666666666667 469.5833333333333 93.08333333333334 C 469.8333333333333 93.0 470.1666666666667 93.0 470.4166666666667 92.91666666666666 C 470.6666666666667 92.83333333333333 470.8333333333333 92.66666666666667 471.0 92.5 C 471.1666666666667 92.33333333333333 471.3333333333333 92.16666666666667 471.5 92.0 C 471.6666666666667 91.83333333333333 471.8333333333333 91.66666666666667 471.91666666666663 91.41666666666667 C 472.0 91.16666666666667 472.0 90.83333333333333 472.08333333333337 90.58333333333333 C 472.1666666666667 90.33333333333333 472.3333333333333 90.16666666666667 472.5 90.0 C 472.6666666666667 89.83333333333333 472.8333333333333 89.66666666666667 472.91666666666663 89.41666666666667 C 473.0 89.16666666666667 473.0 88.83333333333333 473.0 88.5 C 473.0 88.16666666666667 473.0 87.83333333333333 472.91666666666663 87.58333333333333 C 472.8333333333333 87.33333333333333 472.6666666666667 87.16666666666667 472.5 87.0 C 472.3333333333333 86.83333333333333 472.1666666666667 86.66666666666667 472.08333333333337 86.41666666666667 C 472.0 86.16666666666667 472.0 85.83333333333333 472.0 85.5 C 472.0 85.16666666666667 472.0 84.83333333333333 472.08333333333337 84.58333333333333 C 472.1666666666667 84.33333333333333 472.3333333333333 84.16666666666667 472.5 84.0 C 472.6666666666667 83.83333333333333 472.8333333333333 83.66666666666667 473.0 83.5 C 473.1666666666667 83.33333333333333 473.3333333333333 83.16666666666667 473.5 83.0 C 473.6666666666667 82.83333333333333 473.8333333333333 82.66666666666667 473.91666666666663 82.41666666666667 C 474.0 82.16666666666667 474.0 81.83333333333333 473.91666666666663 81.58333333333333 C 473.8333333333333 81.33333333333333 473.6666666666667 81.16666666666667 473.5 81.16666666666667 C 473.3333333333333 81.16666666666667 473.1666666666667 81.33333333333333 473.0 81.5 C 472.8333333333333 81.66666666666667 472.6666666666667 81.83333333333333 472.4166666666667 81.91666666666666 C 472.1666666666667 82.0 471.8333333333333 82.0 471.5 82.0 C 471.1666666666667 82.0 470.8333333333333 82.0 470.5833333333333 82.08333333333334 C 470.3333333333333 82.16666666666667 470.1666666666667 82.33333333333333 470.0 82.5 C 469.8333333333333 82.66666666666667 469.6666666666667 82.83333333333333 469.4166666666667 82.91666666666666 C 469.1666666666667 83.0 468.8333333333333 83.0 468.5833333333333 83.08333333333334 C 468.3333333333333 83.16666666666667 468.1666666666667 83.33333333333333 468.0 83.5 C 467.8333333333333 83.66666666666667 467.6666666666667 83.83333333333333 467.5 84.0 C 467.3333333333333 84.16666666666667 467.1666666666667 84.33333333333333 467.0 84.5 C 466.8333333333333 84.66666666666667 466.6666666666667 84.83333333333333 466.5 85.0 C 466.3333333333333 85.16666666666667 466.1666666666667 85.33333333333333 466.0 85.5 C 465.8333333333333 85.66666666666667 465.6666666666667 85.83333333333333 465.5 86.0 C 465.3333333333333 86.16666666666667 465.1666666666667 86.33333333333333 465.0 86.5 C 464.8333333333333 86.66666666666667 464.6666666666667 86.83333333333333 464.4166666666667 86.91666666666666 C 464.1666666666667 87.0 463.8333333333333 87.0 463.5833333333333 87.08333333333334 C 463.3333333333333 87.16666666666667 463.1666666666667 87.33333333333333 463.0 87.5 C 462.8333333333333 87.66666666666667 462.6666666666667 87.83333333333333 462.5 88.0 C 462.3333333333333 88.16666666666667 462.1666666666667 88.33333333333333 462.0 88.5 C 461.8333333333333 88.66666666666667 461.6666666666667 88.83333333333333 461.5 89.0 C 461.3333333333333 89.16666666666667 461.1666666666667 89.33333333333333 461.0 89.5 C 460.8333333333333 89.66666666666667 460.6666666666667 89.83333333333333 460.5 90.0 C 460.3333333333333 90.16666666666667 460.1666666666667 90.33333333333333 460.08333333333337 90.58333333333333 C 460.0 90.83333333333333 460.0 91.16666666666667 459.91666666666663 91.41666666666667 C 459.8333333333333 91.66666666666667 459.6666666666667 91.83333333333333 459.5 92.0" fill="none"/></svg>